HIERARCHY
ROOT hip
{
	OFFSET 0.000000 0.000000 0.000000 
	CHANNELS 6 Xposition Yposition Zposition Xrotation Zrotation Yrotation
	JOINT abdomen
	{
		OFFSET 0.000000 3.402643 0.000000 
		CHANNELS 3 Xrotation Zrotation Yrotation
		JOINT chest
		{
			OFFSET 0.000000 8.438565 -0.680529 
			CHANNELS 3 Xrotation Zrotation Yrotation
			JOINT neck
			{
				OFFSET 0.000000 10.207942 -0.272212 
				CHANNELS 3 Xrotation Zrotation Yrotation
				JOINT head
				{
					OFFSET 0.000000 3.130431 0.000000 
					CHANNELS 3 Xrotation Zrotation Yrotation
					End Site
					{
						OFFSET 0.000000 3.130435 0.000000 
					}
				}
			}
			JOINT lCollar
			{
				OFFSET 3.470700 6.669187 -0.816635 
				CHANNELS 3 Yrotation Zrotation Xrotation
				JOINT lShldr
				{
					OFFSET 3.198488 0.000000 0.000000 
					CHANNELS 3 Zrotation Yrotation Xrotation
					JOINT lForeArm
					{
						OFFSET 10.139888 0.000000 0.000000 
						CHANNELS 3 Yrotation Zrotation Xrotation
						JOINT lHand
						{
							OFFSET 8.370511 0.000000 0.000000 
							CHANNELS 3 Zrotation Yrotation Xrotation
							End Site
							{
								OFFSET 4.083176 0.000000 0.000000 
							}
						}
					}
				}
			}
			JOINT rCollar
			{
				OFFSET -3.470700 6.669187 -0.816635 
				CHANNELS 3 Yrotation Zrotation Xrotation
				JOINT rShldr
				{
					OFFSET -3.198488 0.000000 0.000000 
					CHANNELS 3 Zrotation Yrotation Xrotation
					JOINT rForeArm
					{
						OFFSET -10.139888 0.000000 0.000000 
						CHANNELS 3 Yrotation Zrotation Xrotation
						JOINT rHand
						{
							OFFSET -8.370511 0.000000 0.000000 
							CHANNELS 3 Zrotation Yrotation Xrotation
							End Site
							{
								OFFSET -4.083176 0.000000 0.000000 
							}
						}
					}
				}
			}
		}
	}
	JOINT lThigh
	{
		OFFSET 5.308129 -1.633274 1.361059 
		CHANNELS 3 Xrotation Zrotation Yrotation
		JOINT lShin
		{
			OFFSET -2.041588 -20.007561 0.000000 
			CHANNELS 3 Xrotation Zrotation Yrotation
			JOINT lFoot
			{
				OFFSET 0.000000 -19.190928 -1.224953 
				CHANNELS 3 Xrotation Yrotation Zrotation
				End Site
				{
					OFFSET 0.000000 -2.449906 4.627600 
				}
			}
		}
	}
	JOINT rThigh
	{
		OFFSET -5.308129 -1.633274 1.361059 
		CHANNELS 3 Xrotation Zrotation Yrotation
		JOINT rShin
		{
			OFFSET 2.041588 -20.007561 0.000000 
			CHANNELS 3 Xrotation Zrotation Yrotation
			JOINT rFoot
			{
				OFFSET 0.000000 -19.190928 -1.224953 
				CHANNELS 3 Xrotation Yrotation Zrotation
				End Site
				{
					OFFSET 0.000000 -2.449906 4.627600 
				}
			}
		}
	}
}
MOTION
Frames: 15
Frame Time: 0.016667
-2.653552 42.599792 7.615631 -1.631280 1.298300 96.759903 -13.051600 -6.067440 -3.058020 21.643299 -4.012950 -2.000380 1.606970 6.762090 -17.947399 7.539150 7.771180 -8.535090 2.000000 -2.000000 0.000000 -74.585701 -0.130984 165.889008 92.090401 -0.209506 0.156194 -179.910004 -179.889008 4.054900 -2.000000 2.000000 0.000000 34.232101 -3.399310 121.704002 -35.430099 0.326248 0.079259 -0.063780 0.054052 -156.608994 -13.028351 14.373527 10.947022 40.888584 2.725360 2.804378 -18.003323 15.146029 4.573531 -19.179222 2.254586 -4.799234 42.797371 -2.113585 -3.118148 -19.611925 -7.728099 -4.514765 
-2.481888 42.630783 7.881211 -1.240670 1.513320 95.963303 -13.020000 -6.628080 -3.507610 21.624100 -4.266840 -2.286960 1.821050 5.984090 -17.441401 7.467290 7.489190 -8.328130 2.000000 -2.000000 0.000000 -74.115196 1.493230 162.994995 92.344299 -0.208857 0.156169 -179.919998 -179.899002 4.181830 -2.000000 2.000000 0.000000 31.770700 -7.494940 116.593002 -35.498402 0.326154 0.079392 -0.074230 0.065693 -157.322006 -11.916620 14.105082 11.211914 39.998280 2.816433 2.733960 -18.810772 15.466377 4.938344 -18.721802 2.375001 -4.508608 42.550751 -2.143523 -3.105937 -19.386347 -7.757741 -4.444993 
-2.346430 42.698421 8.140600 -1.846730 1.913070 95.211800 -12.998200 -6.904010 -4.330260 21.330500 -4.530840 -2.688670 1.891750 5.550250 -16.730000 7.397200 7.372880 -7.992310 2.000000 -2.000000 0.000000 -74.434998 3.038390 159.641998 92.852097 -0.207560 0.156110 -179.917999 -179.886993 2.902560 -2.000000 2.000000 0.000000 29.721800 -10.645400 112.742996 -35.771900 0.325774 0.079922 -0.074849 0.067330 -157.947006 -10.930484 14.785637 10.643455 39.511471 2.887001 2.687679 -19.165241 16.341396 5.283026 -17.913292 3.468972 -4.311800 41.726654 -2.157368 -3.061214 -19.599270 -7.294755 -4.256044 
-2.242462 42.758869 8.415570 -2.276710 1.951580 94.629501 -12.994100 -7.242840 -4.879580 21.281799 -4.784780 -2.981020 2.275580 6.057800 -16.008101 7.526980 7.547090 -7.633350 2.000000 -2.000000 0.000000 -74.735397 4.262470 156.759003 93.418503 -0.206115 0.156031 -179.917007 -179.895996 2.531450 -2.000000 2.000000 0.000000 28.551800 -13.747700 109.022003 -35.967201 0.325501 0.080300 -0.074249 0.065745 -157.341995 -10.540635 15.310026 10.224257 39.248886 2.973899 2.653323 -19.302322 17.075312 5.545017 -17.562605 4.365376 -4.055383 41.118679 -2.170372 -3.040533 -19.558437 -6.991208 -4.062018 
-2.168947 42.761826 8.650401 -2.912370 2.233440 94.075897 -13.017300 -7.360630 -5.556680 21.027000 -4.804530 -3.311560 1.732200 5.559890 -15.048000 7.181930 7.521160 -7.172040 2.000000 -2.000000 0.000000 -75.602402 6.044290 154.324005 94.678299 -0.202902 0.155803 -179.914993 -179.893005 1.281450 -2.000000 2.000000 0.000000 27.094299 -16.090500 107.789001 -35.654701 0.325937 0.079695 -0.075036 0.058049 -158.132996 -9.977573 15.979959 9.396200 38.947506 3.050783 2.615168 -19.655411 17.796350 5.843330 -17.048826 5.421846 -4.039518 40.451385 -2.179510 -3.000422 -19.217409 -6.644751 -3.819312 
-2.097636 42.902779 8.882660 -2.267470 2.312640 93.316704 -13.210600 -8.246720 -5.819870 20.742901 -5.156220 -3.533180 2.246130 5.235170 -14.405700 7.179500 7.257890 -6.893480 2.000000 -2.000000 0.000000 -75.249199 7.563670 152.416000 95.254501 -0.201434 0.155675 -179.912994 -179.882004 0.705302 -2.000000 2.000000 0.000000 26.582500 -17.378401 106.021004 -35.019901 0.326813 0.078459 -0.074412 0.066180 -157.507996 -8.759639 15.065351 9.191290 37.533199 3.166293 2.524999 -19.634266 19.004232 6.189424 -16.842142 5.039709 -3.567346 40.627102 -2.192864 -3.011073 -19.742971 -5.674709 -3.430044 
-2.045476 42.932491 9.033048 -2.844170 2.340870 92.305702 -13.281000 -8.528020 -6.324590 20.615499 -5.419920 -3.805280 2.988320 4.900530 -13.519500 7.433580 7.060560 -6.472550 2.000000 -2.000000 0.000000 -75.920502 8.388740 150.022003 95.742798 -0.200192 0.155556 -179.912994 -179.880997 0.256086 -2.000000 2.000000 0.000000 25.490801 -17.857401 106.820999 -34.668301 0.327292 0.077771 -0.075821 0.060033 -158.893997 -8.182400 15.627836 9.207603 37.142097 3.246689 2.477264 -20.093073 19.620867 6.503881 -16.494007 5.924836 -3.268106 39.764233 -2.194663 -2.962101 -18.745583 -5.608696 -3.280614 
-2.032569 42.982124 9.171404 -3.793220 2.679670 90.838203 -13.540600 -8.694400 -6.316880 19.997000 -5.888390 -3.771020 3.394210 4.432690 -13.053700 7.451070 6.826430 -6.270390 2.000000 -2.000000 0.000000 -76.456497 9.275000 148.848007 96.231003 -0.198950 0.155425 -179.912003 -179.880005 -0.095497 -2.000000 2.000000 0.000000 24.915100 -17.857500 106.997002 -34.150799 0.327990 0.076752 -0.074898 0.067458 -157.996002 -7.278804 16.625696 9.403270 37.130802 3.359655 2.445314 -20.610405 20.704697 6.926203 -15.925522 7.302281 -2.652916 39.057766 -2.202918 -2.922046 -18.653624 -5.143517 -2.993829 
-2.039883 43.040245 9.239301 -3.264800 2.486200 89.858398 -13.722000 -9.076640 -6.223940 20.065800 -5.878690 -3.807410 3.353520 5.268360 -12.533600 7.444260 7.148200 -5.997390 2.000000 -2.000000 0.000000 -76.445999 9.254380 148.311005 96.065002 -0.199372 0.155471 -179.912003 -179.880005 -0.105263 -2.000000 2.000000 0.000000 25.140499 -17.437901 107.397003 -34.375401 0.327688 0.077195 -0.074116 0.065386 -157.205002 -6.619335 15.646963 9.201178 36.290672 3.405828 2.390258 -21.333622 21.715511 7.590613 -15.860394 6.814420 -2.492382 38.448029 -2.231328 -2.886397 -17.751245 -4.512100 -2.635144 
-2.104443 43.093616 9.212408 -2.599530 2.175500 88.836899 -13.897600 -9.260270 -5.958700 20.213100 -5.732320 -3.735390 3.567660 5.805550 -12.406500 7.623870 7.390160 -5.921260 2.000000 -2.000000 0.000000 -76.593300 9.079910 148.955994 96.152901 -0.199149 0.155447 -179.910995 -179.880005 -0.525183 -2.000000 2.000000 0.000000 25.437099 -16.950800 108.980003 -34.765999 0.327159 0.077962 -0.074498 0.066410 -157.595001 -6.222366 14.555572 9.370453 35.511955 3.430224 2.356245 -21.824793 22.747715 8.172971 -16.142317 6.091978 -2.172421 38.153091 -2.241653 -2.866481 -17.139673 -3.994030 -2.400798 
-2.154389 43.144936 9.169864 -3.390960 2.105690 88.303101 -13.996400 -9.195910 -5.502930 20.124300 -6.327950 -3.497560 3.537930 5.673920 -12.692500 7.533500 7.215590 -6.070200 2.000000 -2.000000 0.000000 -75.609299 8.137190 151.154999 95.547401 -0.200689 0.155605 -179.910004 -179.878998 -0.847447 -2.000000 2.000000 0.000000 27.032700 -16.766600 110.617996 -35.664398 0.325923 0.079714 -0.074421 0.066206 -157.516998 -6.203456 14.956445 8.540003 35.575657 3.479891 2.350932 -22.821163 23.569971 8.892673 -15.777810 6.930263 -2.295861 36.808041 -2.267930 -2.796355 -15.919346 -4.145174 -2.372249 
-2.212434 43.185184 9.130548 -4.241640 2.278900 87.887802 -13.917900 -8.777960 -5.245380 20.183300 -6.298700 -3.318660 2.782710 5.006940 -12.875100 7.206480 6.974860 -6.154640 2.000000 -2.000000 0.000000 -75.699402 7.106740 153.384003 94.678299 -0.202902 0.155803 -179.910995 -179.880005 -0.427527 -2.000000 2.000000 0.000000 28.814199 -15.947900 112.494003 -37.373402 0.323497 0.082991 -0.074182 0.065565 -157.272995 -6.092624 15.649437 7.898800 35.853432 3.456743 2.370831 -24.075363 23.988672 9.621938 -15.138961 7.843069 -2.323020 35.572304 -2.277574 -2.746639 -15.086250 -4.289320 -2.355179 
-2.289139 43.265690 9.076455 -4.319110 2.025490 88.265099 -14.160200 -8.576090 -5.419400 20.095400 -5.663880 -3.411730 2.646540 5.922600 -12.542200 7.189970 7.326060 -5.960760 2.000000 -2.000000 0.000000 -75.945900 6.623720 155.826004 93.984901 -0.204670 0.155937 -179.910004 -179.878998 -1.023230 -2.000000 2.000000 0.000000 31.000200 -14.965300 116.271004 -39.951599 0.319654 0.087794 -0.074469 0.066334 -157.565994 -6.642906 15.470302 7.206008 35.892326 3.460789 2.371811 -24.428244 24.186754 9.828453 -15.201915 7.761340 -2.606308 34.854774 -2.286274 -2.686196 -14.596447 -4.315775 -2.345732 
-2.378830 43.337833 8.976374 -4.260160 1.899040 88.530502 -14.108300 -8.177070 -4.543570 20.458500 -5.703120 -2.968810 2.761840 6.097650 -13.401700 7.386880 7.324230 -6.365550 2.000000 -2.000000 0.000000 -75.861900 4.925360 160.623993 92.608002 -0.208184 0.156140 -179.912003 -179.880005 -0.115028 -2.000000 2.000000 0.000000 34.785500 -15.681100 118.914001 -43.516102 0.313993 0.094141 -0.076078 0.060666 -159.138000 -6.937390 15.263777 7.056864 35.744274 3.462512 2.354310 -24.222656 24.334808 9.768814 -15.178271 7.591981 -2.504841 34.324074 -2.309945 -2.674318 -14.399460 -4.314058 -2.357328 
-2.505513 43.433262 8.807125 -4.172270 1.918730 89.274200 -14.028700 -7.578350 -4.440820 20.586100 -5.009770 -2.864740 2.568070 5.532680 -13.656900 7.463570 7.109030 -6.456270 2.000000 -2.000000 0.000000 -76.851196 3.334490 165.315002 91.641197 -0.210654 0.156232 -179.910995 -179.878998 -0.740026 -2.000000 2.000000 0.000000 37.733200 -14.846200 122.918999 -46.816898 0.308409 0.099693 -0.077285 0.063541 -160.251999 -7.181277 14.988166 6.576481 35.332737 3.447842 2.334177 -23.575624 24.529703 9.492988 -14.981548 7.289672 -2.535220 33.636448 -2.319033 -2.632448 -13.871328 -4.896098 -2.561207 
